<?xml version="1.0" encoding="UTF-8"?>
<svg xmlns="http://www.w3.org/2000/svg" xmlns:xlink="http://www.w3.org/1999/xlink" width="24px" height="24px" viewBox="0 0 24 24" version="1.1">
<g id="surface1">
<path style=" stroke:none;fill-rule:evenodd;fill:rgb(0%,56.862748%,80.784315%);fill-opacity:1;" d="M 11.996094 0 C 18.621094 0 23.992188 5.367188 23.992188 11.992188 C 23.992188 18.617188 18.621094 23.988281 11.996094 23.988281 C 5.375 23.988281 0.00390625 18.617188 0.00390625 11.992188 C 0.00390625 5.367188 5.375 0 11.996094 0 Z M 11.996094 0 "/>
<path style=" stroke:none;fill-rule:evenodd;fill:rgb(100%,86.274511%,0%);fill-opacity:1;" d="M 11.996094 0.566406 C 18.308594 0.566406 23.425781 5.683594 23.425781 11.992188 C 23.425781 18.304688 18.308594 23.421875 11.996094 23.421875 C 5.6875 23.421875 0.570312 18.304688 0.570312 11.992188 C 0.570312 5.683594 5.6875 0.566406 11.996094 0.566406 Z M 11.996094 0.566406 "/>
<path style=" stroke:none;fill-rule:evenodd;fill:rgb(0%,56.862748%,80.784315%);fill-opacity:1;" d="M 11.996094 1.234375 C 17.941406 1.234375 22.757812 6.050781 22.757812 11.992188 C 22.757812 17.9375 17.941406 22.753906 11.996094 22.753906 C 6.054688 22.753906 1.238281 17.9375 1.238281 11.992188 C 1.238281 6.050781 6.054688 1.234375 11.996094 1.234375 Z M 11.996094 1.234375 "/>
<path style=" stroke:none;fill-rule:evenodd;fill:rgb(100%,86.274511%,0%);fill-opacity:1;" d="M 11.996094 3.949219 C 16.441406 3.949219 20.042969 7.550781 20.042969 11.992188 C 20.042969 16.4375 16.441406 20.039062 11.996094 20.039062 C 7.554688 20.039062 3.953125 16.4375 3.953125 11.992188 C 3.953125 7.550781 7.554688 3.949219 11.996094 3.949219 Z M 11.996094 3.949219 "/>
<path style=" stroke:none;fill-rule:evenodd;fill:rgb(0%,56.862748%,80.784315%);fill-opacity:1;" d="M 11.980469 5.28125 L 17.117188 7.707031 L 17.789062 16.574219 L 11.96875 18.691406 L 6.226562 16.589844 L 6.925781 7.683594 Z M 11.980469 5.28125 "/>
<path style=" stroke:none;fill-rule:evenodd;fill:rgb(100%,86.274511%,0%);fill-opacity:1;" d="M 8.082031 8.109375 L 15.882812 8.109375 L 15.882812 9.933594 L 10.941406 9.933594 L 10.941406 11.394531 L 15.671875 11.394531 L 15.671875 13.171875 L 10.941406 13.171875 L 10.941406 14.535156 L 15.898438 14.535156 L 15.898438 16.417969 L 8.082031 16.417969 Z M 8.082031 8.109375 "/>
<path style=" stroke:none;fill-rule:evenodd;fill:rgb(99.607843%,86.274511%,0%);fill-opacity:1;" d="M 7.855469 21.445312 L 8.53125 19.78125 L 9.371094 20.121094 L 9.242188 20.441406 L 8.777344 20.253906 L 8.640625 20.585938 L 9.054688 20.75 L 8.925781 21.070312 L 8.515625 20.902344 L 8.363281 21.273438 L 8.84375 21.46875 L 8.714844 21.789062 Z M 7.855469 21.445312 "/>
<path style=" stroke:none;fill-rule:evenodd;fill:rgb(99.607843%,86.274511%,0%);fill-opacity:1;" d="M 9.589844 22.027344 L 9.902344 20.261719 L 10.300781 20.332031 L 10.050781 21.753906 L 10.488281 21.828125 L 10.425781 22.175781 Z M 9.589844 22.027344 "/>
<path style=" stroke:none;fill-rule:evenodd;fill:rgb(99.607843%,86.274511%,0%);fill-opacity:1;" d="M 11.191406 22.257812 L 11.585938 20.476562 L 12.132812 20.496094 L 12.394531 22.300781 L 11.964844 22.285156 L 11.933594 21.960938 L 11.65625 21.953125 L 11.601562 22.273438 Z M 11.714844 21.628906 L 11.90625 21.636719 L 11.863281 21.085938 C 11.863281 21.046875 11.859375 21.007812 11.855469 20.964844 C 11.851562 20.925781 11.851562 20.859375 11.847656 20.777344 C 11.839844 20.824219 11.832031 20.875 11.824219 20.925781 C 11.816406 20.976562 11.808594 21.03125 11.800781 21.085938 Z M 11.714844 21.628906 "/>
<path style=" stroke:none;fill-rule:evenodd;fill:rgb(99.607843%,86.274511%,0%);fill-opacity:1;" d="M 13.164062 22.238281 L 12.855469 20.472656 L 13.300781 20.394531 L 13.636719 21.074219 C 13.671875 21.148438 13.710938 21.226562 13.746094 21.304688 C 13.78125 21.386719 13.820312 21.472656 13.855469 21.5625 C 13.828125 21.476562 13.804688 21.390625 13.785156 21.300781 C 13.761719 21.214844 13.742188 21.113281 13.722656 20.996094 L 13.605469 20.339844 L 13.992188 20.273438 L 14.304688 22.039062 L 13.871094 22.117188 L 13.507812 21.394531 C 13.472656 21.320312 13.433594 21.242188 13.398438 21.160156 C 13.363281 21.078125 13.328125 20.996094 13.292969 20.902344 C 13.328125 21.035156 13.359375 21.15625 13.386719 21.273438 C 13.414062 21.390625 13.4375 21.496094 13.453125 21.597656 L 13.554688 22.171875 Z M 13.164062 22.238281 "/>
<path style=" stroke:none;fill-rule:evenodd;fill:rgb(99.607843%,86.274511%,0%);fill-opacity:1;" d="M 15.105469 21.832031 L 14.742188 20.042969 L 15.246094 19.835938 L 16.222656 21.378906 L 15.820312 21.542969 L 15.664062 21.257812 L 15.402344 21.363281 L 15.488281 21.675781 Z M 15.324219 21.042969 L 15.503906 20.96875 L 15.242188 20.484375 C 15.226562 20.453125 15.207031 20.417969 15.1875 20.382812 C 15.167969 20.34375 15.136719 20.285156 15.101562 20.210938 C 15.113281 20.257812 15.128906 20.304688 15.140625 20.355469 C 15.15625 20.40625 15.167969 20.457031 15.183594 20.511719 Z M 15.324219 21.042969 "/>
<path style=" stroke:none;fill-rule:evenodd;fill:rgb(100%,86.274511%,0%);fill-opacity:1;" d="M 1.832031 12.910156 L 1.832031 11.539062 C 1.789062 11.542969 1.757812 11.546875 1.734375 11.550781 C 1.714844 11.550781 1.695312 11.550781 1.683594 11.550781 L 1.554688 11.550781 L 1.554688 11.273438 L 1.558594 11.273438 C 1.632812 11.273438 1.699219 11.257812 1.753906 11.226562 C 1.808594 11.195312 1.855469 11.148438 1.886719 11.089844 L 2.234375 11.089844 L 2.234375 12.910156 Z M 1.832031 12.910156 "/>
<path style=" stroke:none;fill-rule:evenodd;fill:rgb(100%,86.274511%,0%);fill-opacity:1;" d="M 3.066406 12.464844 L 3.066406 12.5 C 3.066406 12.539062 3.078125 12.566406 3.09375 12.585938 C 3.109375 12.605469 3.132812 12.617188 3.164062 12.617188 C 3.195312 12.617188 3.21875 12.605469 3.234375 12.585938 C 3.25 12.570312 3.257812 12.539062 3.257812 12.5 L 3.257812 12.269531 C 3.222656 12.296875 3.1875 12.316406 3.144531 12.332031 C 3.105469 12.34375 3.0625 12.351562 3.019531 12.351562 C 2.90625 12.351562 2.820312 12.320312 2.761719 12.25 C 2.703125 12.183594 2.675781 12.082031 2.675781 11.949219 L 2.675781 11.542969 C 2.675781 11.382812 2.714844 11.265625 2.796875 11.1875 C 2.878906 11.109375 3 11.070312 3.164062 11.070312 C 3.324219 11.070312 3.449219 11.109375 3.527344 11.1875 C 3.609375 11.265625 3.648438 11.382812 3.648438 11.542969 L 3.648438 12.457031 C 3.648438 12.617188 3.609375 12.734375 3.527344 12.8125 C 3.449219 12.890625 3.324219 12.929688 3.164062 12.929688 C 3.003906 12.929688 2.882812 12.890625 2.800781 12.816406 C 2.71875 12.738281 2.675781 12.628906 2.675781 12.488281 L 2.675781 12.464844 Z M 3.066406 11.5 L 3.066406 11.941406 C 3.066406 11.980469 3.078125 12.007812 3.09375 12.027344 C 3.109375 12.046875 3.132812 12.054688 3.164062 12.054688 C 3.195312 12.054688 3.21875 12.046875 3.234375 12.027344 C 3.25 12.007812 3.257812 11.980469 3.257812 11.941406 L 3.257812 11.5 C 3.257812 11.460938 3.25 11.433594 3.234375 11.414062 C 3.21875 11.394531 3.195312 11.386719 3.164062 11.386719 C 3.128906 11.386719 3.105469 11.394531 3.089844 11.414062 C 3.074219 11.429688 3.066406 11.460938 3.066406 11.5 Z M 3.066406 11.5 "/>
<path style=" stroke:none;fill-rule:evenodd;fill:rgb(100%,86.274511%,0%);fill-opacity:1;" d="M 20.960938 12.519531 L 20.960938 12.082031 C 20.960938 12.042969 20.953125 12.015625 20.9375 11.996094 C 20.921875 11.976562 20.898438 11.964844 20.867188 11.964844 C 20.835938 11.964844 20.8125 11.976562 20.796875 11.992188 C 20.78125 12.011719 20.773438 12.042969 20.773438 12.082031 L 20.773438 12.519531 C 20.773438 12.558594 20.78125 12.589844 20.796875 12.609375 C 20.8125 12.628906 20.835938 12.636719 20.867188 12.636719 C 20.898438 12.636719 20.921875 12.628906 20.9375 12.609375 C 20.953125 12.589844 20.960938 12.5625 20.960938 12.519531 Z M 20.960938 11.558594 L 20.960938 11.519531 C 20.960938 11.480469 20.953125 11.453125 20.9375 11.433594 C 20.921875 11.417969 20.898438 11.40625 20.867188 11.40625 C 20.835938 11.40625 20.8125 11.417969 20.796875 11.433594 C 20.78125 11.453125 20.773438 11.480469 20.773438 11.519531 L 20.773438 11.753906 C 20.804688 11.726562 20.839844 11.703125 20.882812 11.691406 C 20.921875 11.675781 20.964844 11.671875 21.011719 11.671875 C 21.125 11.671875 21.207031 11.703125 21.265625 11.773438 C 21.324219 11.839844 21.355469 11.9375 21.355469 12.070312 L 21.355469 12.480469 C 21.355469 12.636719 21.3125 12.753906 21.234375 12.832031 C 21.152344 12.910156 21.03125 12.949219 20.867188 12.949219 C 20.703125 12.949219 20.582031 12.910156 20.5 12.832031 C 20.421875 12.753906 20.378906 12.636719 20.378906 12.480469 L 20.378906 11.5625 C 20.378906 11.40625 20.421875 11.285156 20.5 11.207031 C 20.582031 11.128906 20.703125 11.09375 20.867188 11.09375 C 21.023438 11.09375 21.144531 11.128906 21.226562 11.207031 C 21.3125 11.285156 21.355469 11.394531 21.355469 11.535156 L 21.355469 11.558594 Z M 20.960938 11.558594 "/>
<path style=" stroke:none;fill-rule:evenodd;fill:rgb(100%,86.274511%,0%);fill-opacity:1;" d="M 21.921875 11.519531 L 21.921875 11.691406 C 21.921875 11.726562 21.929688 11.757812 21.945312 11.773438 C 21.960938 11.792969 21.984375 11.800781 22.015625 11.800781 C 22.046875 11.800781 22.070312 11.792969 22.085938 11.777344 C 22.101562 11.757812 22.109375 11.730469 22.109375 11.691406 L 22.109375 11.519531 C 22.109375 11.480469 22.101562 11.453125 22.085938 11.433594 C 22.070312 11.417969 22.046875 11.40625 22.015625 11.40625 C 21.980469 11.40625 21.957031 11.417969 21.941406 11.433594 C 21.929688 11.453125 21.921875 11.480469 21.921875 11.519531 Z M 21.921875 12.214844 L 21.921875 12.519531 C 21.921875 12.558594 21.929688 12.589844 21.945312 12.605469 C 21.960938 12.625 21.984375 12.632812 22.015625 12.632812 C 22.046875 12.632812 22.070312 12.625 22.085938 12.605469 C 22.101562 12.589844 22.109375 12.558594 22.109375 12.519531 L 22.109375 12.214844 C 22.109375 12.175781 22.101562 12.148438 22.085938 12.128906 C 22.070312 12.109375 22.046875 12.101562 22.015625 12.101562 C 21.980469 12.101562 21.957031 12.109375 21.941406 12.128906 C 21.929688 12.144531 21.921875 12.175781 21.921875 12.214844 Z M 22.503906 12.480469 C 22.503906 12.636719 22.464844 12.753906 22.382812 12.832031 C 22.304688 12.910156 22.179688 12.949219 22.015625 12.949219 C 21.851562 12.949219 21.726562 12.910156 21.644531 12.832031 C 21.566406 12.753906 21.523438 12.636719 21.523438 12.480469 L 21.523438 12.328125 C 21.523438 12.222656 21.539062 12.136719 21.566406 12.078125 C 21.597656 12.015625 21.644531 11.972656 21.710938 11.945312 C 21.652344 11.921875 21.609375 11.882812 21.578125 11.835938 C 21.550781 11.785156 21.535156 11.726562 21.535156 11.652344 L 21.535156 11.5625 C 21.535156 11.40625 21.574219 11.285156 21.65625 11.207031 C 21.734375 11.128906 21.855469 11.09375 22.015625 11.09375 C 22.175781 11.09375 22.296875 11.132812 22.375 11.210938 C 22.457031 11.289062 22.496094 11.40625 22.496094 11.5625 L 22.496094 11.652344 C 22.496094 11.730469 22.480469 11.792969 22.445312 11.84375 C 22.410156 11.890625 22.359375 11.925781 22.292969 11.945312 C 22.367188 11.964844 22.421875 12.003906 22.457031 12.0625 C 22.488281 12.125 22.503906 12.210938 22.503906 12.328125 Z M 22.503906 12.480469 "/>
<path style=" stroke:none;fill-rule:evenodd;fill:rgb(99.607843%,86.274511%,0%);fill-opacity:1;" d="M 4.066406 8.851562 L 2.871094 8.394531 L 2.785156 8.613281 L 2.5 8.503906 L 2.796875 7.730469 L 3.082031 7.839844 L 3 8.058594 L 4.191406 8.519531 Z M 4.066406 8.851562 "/>
<path style=" stroke:none;fill-rule:evenodd;fill:rgb(99.607843%,86.274511%,0%);fill-opacity:1;" d="M 4.296875 7.625 L 3.753906 7.324219 C 3.71875 7.304688 3.695312 7.296875 3.675781 7.300781 C 3.652344 7.304688 3.636719 7.316406 3.625 7.339844 C 3.613281 7.363281 3.609375 7.382812 3.617188 7.402344 C 3.628906 7.421875 3.648438 7.4375 3.679688 7.457031 L 4.222656 7.757812 C 4.253906 7.777344 4.28125 7.785156 4.300781 7.78125 C 4.320312 7.78125 4.335938 7.765625 4.351562 7.742188 C 4.363281 7.71875 4.367188 7.699219 4.359375 7.679688 C 4.347656 7.664062 4.328125 7.644531 4.296875 7.625 Z M 3.558594 7.777344 C 3.441406 7.710938 3.371094 7.632812 3.347656 7.542969 C 3.324219 7.449219 3.34375 7.34375 3.410156 7.222656 C 3.480469 7.101562 3.558594 7.023438 3.648438 6.996094 C 3.738281 6.96875 3.84375 6.984375 3.960938 7.050781 L 4.417969 7.304688 C 4.535156 7.367188 4.605469 7.449219 4.628906 7.539062 C 4.652344 7.632812 4.632812 7.738281 4.5625 7.859375 C 4.496094 7.984375 4.417969 8.058594 4.328125 8.085938 C 4.238281 8.113281 4.132812 8.09375 4.015625 8.03125 Z M 3.558594 7.777344 "/>
<path style=" stroke:none;fill-rule:evenodd;fill:rgb(99.607843%,86.274511%,0%);fill-opacity:1;" d="M 4.863281 7.261719 L 3.847656 6.496094 L 4.039062 6.242188 L 4.210938 6.371094 C 4.167969 6.304688 4.140625 6.242188 4.132812 6.183594 C 4.125 6.128906 4.136719 6.078125 4.167969 6.039062 L 4.496094 6.285156 C 4.445312 6.351562 4.425781 6.410156 4.433594 6.457031 C 4.441406 6.503906 4.484375 6.554688 4.554688 6.609375 L 5.066406 6.992188 Z M 4.863281 7.261719 "/>
<path style=" stroke:none;fill-rule:evenodd;fill:rgb(99.607843%,86.274511%,0%);fill-opacity:1;" d="M 4.921875 5.179688 L 5.878906 6.011719 L 5.671875 6.25 L 5.558594 6.152344 C 5.582031 6.210938 5.589844 6.269531 5.582031 6.320312 C 5.574219 6.375 5.554688 6.425781 5.515625 6.464844 C 5.464844 6.527344 5.402344 6.554688 5.339844 6.550781 C 5.273438 6.546875 5.199219 6.511719 5.121094 6.445312 L 4.378906 5.800781 L 4.601562 5.546875 L 5.265625 6.125 C 5.292969 6.144531 5.3125 6.15625 5.332031 6.160156 C 5.351562 6.160156 5.371094 6.152344 5.386719 6.136719 C 5.40625 6.113281 5.410156 6.089844 5.402344 6.066406 C 5.394531 6.042969 5.371094 6.011719 5.328125 5.976562 L 4.703125 5.429688 Z M 4.921875 5.179688 "/>
<path style=" stroke:none;fill-rule:evenodd;fill:rgb(99.607843%,86.274511%,0%);fill-opacity:1;" d="M 6.066406 5.84375 L 5.25 4.871094 L 5.492188 4.664062 L 5.589844 4.78125 C 5.574219 4.71875 5.574219 4.664062 5.589844 4.609375 C 5.605469 4.558594 5.636719 4.511719 5.679688 4.476562 C 5.742188 4.425781 5.804688 4.40625 5.867188 4.421875 C 5.929688 4.433594 5.996094 4.480469 6.0625 4.5625 L 6.695312 5.3125 L 6.4375 5.527344 L 5.871094 4.855469 C 5.851562 4.828125 5.828125 4.8125 5.808594 4.808594 C 5.789062 4.800781 5.773438 4.808594 5.753906 4.820312 C 5.730469 4.839844 5.722656 4.863281 5.726562 4.890625 C 5.734375 4.914062 5.753906 4.949219 5.789062 4.992188 L 6.320312 5.628906 Z M 5.378906 4.632812 L 5.585938 4.460938 L 5.585938 4.152344 L 5.378906 4.324219 Z M 5.378906 4.632812 "/>
<path style=" stroke:none;fill-rule:evenodd;fill:rgb(99.607843%,86.274511%,0%);fill-opacity:1;" d="M 6.660156 4.820312 L 6.910156 4.644531 L 6.949219 4.707031 C 6.972656 4.738281 6.996094 4.757812 7.019531 4.769531 C 7.042969 4.777344 7.0625 4.777344 7.082031 4.761719 C 7.101562 4.75 7.109375 4.730469 7.113281 4.710938 C 7.113281 4.6875 7.105469 4.664062 7.085938 4.636719 C 7.0625 4.601562 7.003906 4.582031 6.90625 4.574219 L 6.890625 4.574219 C 6.871094 4.570312 6.847656 4.570312 6.816406 4.566406 C 6.589844 4.550781 6.441406 4.492188 6.367188 4.386719 C 6.304688 4.296875 6.28125 4.203125 6.304688 4.109375 C 6.324219 4.015625 6.382812 3.933594 6.480469 3.867188 C 6.574219 3.800781 6.664062 3.773438 6.75 3.789062 C 6.835938 3.800781 6.910156 3.851562 6.976562 3.941406 L 7.007812 3.988281 L 6.757812 4.160156 L 6.726562 4.117188 C 6.707031 4.085938 6.683594 4.0625 6.664062 4.054688 C 6.644531 4.046875 6.625 4.050781 6.605469 4.066406 C 6.585938 4.078125 6.578125 4.09375 6.574219 4.113281 C 6.574219 4.136719 6.578125 4.15625 6.59375 4.175781 C 6.617188 4.210938 6.699219 4.234375 6.832031 4.242188 C 6.875 4.242188 6.90625 4.246094 6.929688 4.246094 C 7.042969 4.253906 7.128906 4.273438 7.1875 4.300781 C 7.246094 4.328125 7.296875 4.371094 7.339844 4.433594 C 7.402344 4.523438 7.421875 4.617188 7.402344 4.710938 C 7.378906 4.808594 7.316406 4.890625 7.214844 4.960938 C 7.121094 5.03125 7.027344 5.058594 6.9375 5.042969 C 6.847656 5.03125 6.769531 4.980469 6.707031 4.890625 Z M 6.660156 4.820312 "/>
<path style=" stroke:none;fill-rule:evenodd;fill:rgb(99.607843%,86.274511%,0%);fill-opacity:1;" d="M 7.75 4.585938 L 7.054688 3.160156 L 7.355469 3.011719 L 7.738281 3.796875 L 7.660156 3.214844 L 7.972656 3.066406 L 8.023438 3.648438 L 8.535156 4.203125 L 8.222656 4.355469 L 7.75 3.820312 L 8.050781 4.441406 Z M 7.75 4.585938 "/>
<path style=" stroke:none;fill-rule:evenodd;fill:rgb(99.607843%,86.274511%,0%);fill-opacity:1;" d="M 8.277344 2.839844 L 8.191406 2.613281 L 8.503906 2.492188 L 8.589844 2.722656 Z M 8.753906 4.09375 L 8.304688 2.90625 L 8.617188 2.789062 L 9.066406 3.976562 Z M 8.753906 4.09375 "/>
<path style=" stroke:none;fill-rule:evenodd;fill:rgb(99.607843%,86.274511%,0%);fill-opacity:1;" d="M 9.878906 3.683594 L 9.628906 2.117188 L 9.980469 2.0625 L 10.085938 2.742188 C 10.085938 2.714844 10.085938 2.691406 10.089844 2.664062 C 10.089844 2.640625 10.09375 2.617188 10.097656 2.59375 L 10.214844 2.023438 L 10.589844 1.964844 L 10.375 2.671875 L 10.839844 3.53125 L 10.464844 3.589844 L 10.207031 3.035156 L 10.160156 3.1875 L 10.226562 3.628906 Z M 9.878906 3.683594 "/>
<path style=" stroke:none;fill-rule:evenodd;fill:rgb(99.607843%,86.274511%,0%);fill-opacity:1;" d="M 11.089844 3.5 L 10.980469 1.914062 L 11.3125 1.894531 L 11.421875 3.476562 Z M 11.089844 3.5 "/>
<path style=" stroke:none;fill-rule:evenodd;fill:rgb(99.607843%,86.274511%,0%);fill-opacity:1;" d="M 12.582031 2.207031 L 12.539062 3.476562 L 12.21875 3.464844 L 12.226562 3.316406 C 12.195312 3.371094 12.15625 3.414062 12.109375 3.441406 C 12.0625 3.46875 12.011719 3.484375 11.957031 3.480469 C 11.875 3.476562 11.816406 3.449219 11.777344 3.394531 C 11.738281 3.34375 11.71875 3.261719 11.722656 3.160156 L 11.757812 2.179688 L 12.09375 2.191406 L 12.0625 3.074219 C 12.0625 3.105469 12.066406 3.128906 12.078125 3.144531 C 12.089844 3.164062 12.105469 3.171875 12.128906 3.171875 C 12.160156 3.171875 12.179688 3.164062 12.195312 3.140625 C 12.207031 3.117188 12.214844 3.082031 12.21875 3.027344 L 12.246094 2.195312 Z M 12.582031 2.207031 "/>
<path style=" stroke:none;fill-rule:evenodd;fill:rgb(99.607843%,86.274511%,0%);fill-opacity:1;" d="M 12.8125 3.476562 L 13.011719 1.902344 L 13.34375 1.945312 L 13.289062 2.382812 C 13.324219 2.339844 13.363281 2.308594 13.410156 2.289062 C 13.453125 2.269531 13.5 2.261719 13.550781 2.269531 C 13.632812 2.277344 13.6875 2.3125 13.722656 2.367188 C 13.753906 2.421875 13.765625 2.503906 13.753906 2.605469 L 13.664062 3.292969 C 13.652344 3.398438 13.621094 3.472656 13.574219 3.519531 C 13.527344 3.566406 13.464844 3.585938 13.386719 3.574219 C 13.332031 3.566406 13.285156 3.546875 13.242188 3.511719 C 13.203125 3.476562 13.171875 3.433594 13.148438 3.378906 L 13.132812 3.519531 Z M 13.199219 3.09375 C 13.191406 3.167969 13.191406 3.222656 13.199219 3.25 C 13.207031 3.28125 13.226562 3.296875 13.253906 3.300781 C 13.277344 3.304688 13.292969 3.296875 13.304688 3.285156 C 13.320312 3.269531 13.328125 3.246094 13.332031 3.214844 L 13.410156 2.601562 C 13.414062 2.566406 13.410156 2.542969 13.402344 2.527344 C 13.394531 2.507812 13.378906 2.5 13.355469 2.496094 C 13.328125 2.492188 13.304688 2.503906 13.289062 2.53125 C 13.273438 2.558594 13.261719 2.609375 13.25 2.683594 Z M 13.199219 3.09375 "/>
<path style=" stroke:none;fill-rule:evenodd;fill:rgb(99.607843%,86.274511%,0%);fill-opacity:1;" d="M 14.484375 3.824219 L 14.957031 2.3125 L 15.445312 2.460938 C 15.582031 2.507812 15.675781 2.570312 15.722656 2.652344 C 15.773438 2.738281 15.777344 2.84375 15.734375 2.972656 L 15.6875 3.121094 C 15.652344 3.246094 15.589844 3.328125 15.507812 3.375 C 15.421875 3.421875 15.320312 3.429688 15.203125 3.390625 L 15.015625 3.332031 L 14.828125 3.933594 Z M 15.101562 3.0625 C 15.105469 3.0625 15.109375 3.066406 15.117188 3.070312 C 15.121094 3.070312 15.132812 3.074219 15.144531 3.078125 C 15.203125 3.097656 15.25 3.097656 15.28125 3.085938 C 15.3125 3.070312 15.335938 3.039062 15.351562 2.988281 L 15.378906 2.898438 C 15.398438 2.84375 15.394531 2.804688 15.375 2.773438 C 15.355469 2.742188 15.316406 2.71875 15.25 2.699219 L 15.214844 2.6875 Z M 15.101562 3.0625 "/>
<path style=" stroke:none;fill-rule:evenodd;fill:rgb(99.607843%,86.274511%,0%);fill-opacity:1;" d="M 16.203125 3.042969 L 16.316406 2.824219 L 16.613281 2.976562 L 16.5 3.195312 Z M 15.589844 4.234375 L 16.171875 3.105469 L 16.46875 3.257812 L 15.890625 4.386719 Z M 15.589844 4.234375 "/>
<path style=" stroke:none;fill-rule:evenodd;fill:rgb(99.607843%,86.274511%,0%);fill-opacity:1;" d="M 16.191406 4.5625 L 16.46875 4.085938 L 16.414062 4.085938 L 16.457031 3.847656 L 16.605469 3.851562 L 16.992188 3.191406 L 17.28125 3.359375 L 16.992188 3.855469 L 17.046875 3.855469 L 17 4.09375 L 16.855469 4.09375 L 16.480469 4.730469 Z M 16.191406 4.5625 "/>
<path style=" stroke:none;fill-rule:evenodd;fill:rgb(99.607843%,86.274511%,0%);fill-opacity:1;" d="M 16.746094 4.890625 L 17.679688 3.605469 L 17.949219 3.804688 L 17.4375 4.507812 L 17.914062 4.167969 L 18.191406 4.371094 L 17.703125 4.691406 L 17.449219 5.402344 L 17.167969 5.195312 L 17.421875 4.527344 L 17.015625 5.085938 Z M 16.746094 4.890625 "/>
<path style=" stroke:none;fill-rule:evenodd;fill:rgb(99.607843%,86.274511%,0%);fill-opacity:1;" d="M 18.402344 5.394531 C 18.332031 5.378906 18.277344 5.371094 18.246094 5.378906 C 18.214844 5.386719 18.179688 5.40625 18.148438 5.441406 L 18.0625 5.535156 C 18.03125 5.570312 18.011719 5.597656 18.007812 5.613281 C 18.003906 5.628906 18.011719 5.648438 18.027344 5.660156 C 18.050781 5.683594 18.074219 5.6875 18.105469 5.679688 C 18.136719 5.671875 18.167969 5.648438 18.203125 5.609375 Z M 18.042969 5.804688 C 17.988281 5.804688 17.9375 5.800781 17.898438 5.785156 C 17.855469 5.773438 17.816406 5.75 17.785156 5.722656 C 17.726562 5.667969 17.699219 5.601562 17.699219 5.53125 C 17.703125 5.457031 17.738281 5.386719 17.800781 5.320312 L 17.867188 5.246094 C 17.925781 5.183594 17.988281 5.148438 18.054688 5.128906 C 18.117188 5.117188 18.195312 5.121094 18.28125 5.148438 C 18.296875 5.152344 18.316406 5.160156 18.347656 5.167969 C 18.480469 5.214844 18.570312 5.214844 18.609375 5.171875 L 18.640625 5.136719 C 18.65625 5.121094 18.664062 5.101562 18.664062 5.078125 C 18.664062 5.058594 18.65625 5.039062 18.640625 5.023438 C 18.621094 5.007812 18.601562 5.003906 18.574219 5.007812 C 18.546875 5.015625 18.523438 5.03125 18.496094 5.058594 L 18.441406 5.117188 L 18.214844 4.90625 L 18.265625 4.847656 C 18.34375 4.765625 18.425781 4.726562 18.519531 4.730469 C 18.613281 4.734375 18.707031 4.777344 18.800781 4.863281 C 18.902344 4.960938 18.957031 5.050781 18.964844 5.136719 C 18.972656 5.222656 18.929688 5.316406 18.839844 5.414062 L 18.214844 6.085938 L 17.988281 5.875 Z M 18.042969 5.804688 "/>
<path style=" stroke:none;fill-rule:evenodd;fill:rgb(99.607843%,86.274511%,0%);fill-opacity:1;" d="M 18.386719 6.332031 L 19.324219 5.480469 L 19.539062 5.714844 L 19.378906 5.859375 C 19.457031 5.828125 19.523438 5.8125 19.578125 5.816406 C 19.636719 5.820312 19.683594 5.839844 19.71875 5.875 L 19.414062 6.152344 C 19.355469 6.09375 19.304688 6.0625 19.257812 6.0625 C 19.207031 6.058594 19.152344 6.089844 19.082031 6.152344 L 18.609375 6.582031 Z M 18.386719 6.332031 "/>
<path style=" stroke:none;fill-rule:evenodd;fill:rgb(99.607843%,86.274511%,0%);fill-opacity:1;" d="M 19.160156 6.640625 L 19.34375 6.882812 L 19.285156 6.925781 C 19.25 6.949219 19.230469 6.972656 19.222656 6.996094 C 19.210938 7.019531 19.214844 7.042969 19.230469 7.058594 C 19.242188 7.078125 19.261719 7.085938 19.285156 7.085938 C 19.308594 7.089844 19.332031 7.078125 19.355469 7.0625 C 19.390625 7.035156 19.410156 6.972656 19.414062 6.878906 L 19.414062 6.859375 C 19.414062 6.84375 19.414062 6.820312 19.414062 6.785156 C 19.421875 6.5625 19.476562 6.410156 19.582031 6.332031 C 19.667969 6.265625 19.761719 6.242188 19.855469 6.257812 C 19.949219 6.277344 20.03125 6.332031 20.105469 6.425781 C 20.175781 6.519531 20.203125 6.609375 20.191406 6.695312 C 20.183594 6.78125 20.132812 6.859375 20.046875 6.921875 L 20 6.957031 L 19.820312 6.714844 L 19.863281 6.683594 C 19.894531 6.660156 19.914062 6.636719 19.921875 6.617188 C 19.929688 6.597656 19.925781 6.578125 19.910156 6.558594 C 19.898438 6.539062 19.882812 6.53125 19.859375 6.53125 C 19.839844 6.527344 19.820312 6.535156 19.800781 6.550781 C 19.765625 6.578125 19.746094 6.65625 19.742188 6.792969 C 19.742188 6.835938 19.742188 6.867188 19.738281 6.890625 C 19.734375 7.003906 19.722656 7.089844 19.695312 7.148438 C 19.671875 7.207031 19.628906 7.257812 19.570312 7.304688 C 19.480469 7.371094 19.386719 7.394531 19.292969 7.378906 C 19.195312 7.359375 19.109375 7.300781 19.035156 7.199219 C 18.964844 7.105469 18.933594 7.015625 18.945312 6.925781 C 18.953125 6.835938 19.003906 6.757812 19.089844 6.691406 Z M 19.160156 6.640625 "/>
<path style=" stroke:none;fill-rule:evenodd;fill:rgb(99.607843%,86.274511%,0%);fill-opacity:1;" d="M 19.410156 7.722656 L 20.808594 6.976562 L 20.96875 7.273438 L 20.195312 7.683594 L 20.773438 7.585938 L 20.9375 7.890625 L 20.355469 7.960938 L 19.816406 8.492188 L 19.652344 8.183594 L 20.175781 7.695312 L 19.566406 8.019531 Z M 19.410156 7.722656 "/>
<path style=" stroke:none;fill-rule:evenodd;fill:rgb(99.607843%,86.274511%,0%);fill-opacity:1;" d="M 21.140625 8.257812 L 21.367188 8.164062 L 21.492188 8.476562 L 21.265625 8.566406 Z M 19.894531 8.757812 L 21.074219 8.285156 L 21.199219 8.59375 L 20.023438 9.070312 Z M 19.894531 8.757812 "/>
</g>
</svg>
