<?xml version="1.0" encoding="UTF-8"?>
<svg xmlns="http://www.w3.org/2000/svg" xmlns:xlink="http://www.w3.org/1999/xlink" width="24px" height="24px" viewBox="0 0 24 24" version="1.1">
<g id="surface1">
<path style=" stroke:none;fill-rule:evenodd;fill:rgb(0%,40.000001%,69.803923%);fill-opacity:1;" d="M 21.882812 19.566406 C 18.878906 21.304688 15.46875 22.21875 11.996094 22.214844 C 8.519531 22.214844 5.125 21.3125 2.113281 19.570312 L 1.824219 19.402344 L 1.824219 19.070312 C 1.820312 15.597656 2.738281 12.1875 4.476562 9.183594 C 6.207031 6.179688 8.703125 3.679688 11.710938 1.949219 L 11.996094 1.78125 L 12.285156 1.945312 C 15.292969 3.679688 17.789062 6.175781 19.519531 9.183594 C 21.257812 12.1875 22.175781 15.601562 22.171875 19.070312 L 22.171875 19.402344 Z M 21.882812 19.566406 "/>
<path style=" stroke:none;fill-rule:evenodd;fill:rgb(100%,100%,100%);fill-opacity:1;" d="M 21.738281 19.316406 C 18.773438 21.035156 15.425781 21.925781 11.996094 21.925781 C 8.570312 21.925781 5.226562 21.035156 2.253906 19.320312 L 2.113281 19.238281 L 2.113281 19.066406 C 2.109375 15.648438 3.011719 12.285156 4.726562 9.328125 C 6.433594 6.363281 8.890625 3.902344 11.855469 2.195312 L 11.996094 2.113281 L 12.140625 2.195312 C 15.113281 3.90625 17.554688 6.359375 19.269531 9.328125 C 20.984375 12.289062 21.886719 15.648438 21.882812 19.066406 L 21.882812 19.234375 Z M 21.738281 19.316406 "/>
<path style=" stroke:none;fill-rule:evenodd;fill:rgb(0%,40.000001%,69.803923%);fill-opacity:1;" d="M 21.597656 19.070312 C 18.679688 20.757812 15.367188 21.644531 11.996094 21.636719 C 8.628906 21.644531 5.316406 20.757812 2.398438 19.070312 C 2.398438 15.699219 3.285156 12.390625 4.976562 9.472656 C 6.65625 6.554688 9.078125 4.128906 11.996094 2.449219 C 14.917969 4.128906 17.339844 6.554688 19.023438 9.472656 C 20.710938 12.390625 21.597656 15.699219 21.59375 19.070312 Z M 21.597656 19.070312 "/>
<path style=" stroke:none;fill-rule:evenodd;fill:rgb(100%,100%,100%);fill-opacity:1;" d="M 18.523438 17.296875 C 18.28125 15.070312 17.574219 12.917969 16.445312 10.960938 C 15.3125 9.003906 13.804688 7.320312 11.996094 5.992188 C 10.1875 7.320312 8.671875 9.015625 7.550781 10.964844 C 6.425781 12.90625 5.71875 15.066406 5.472656 17.296875 C 7.523438 18.199219 9.738281 18.660156 11.996094 18.660156 C 14.257812 18.660156 16.472656 18.199219 18.523438 17.296875 Z M 18.523438 17.296875 "/>
<path style=" stroke:none;fill-rule:evenodd;fill:rgb(0%,40.000001%,69.803923%);fill-opacity:1;" d="M 11.996094 6.59375 C 9.769531 8.304688 8.042969 10.585938 6.996094 13.195312 L 8.351562 15.21875 L 8.351562 17.757812 C 9.046875 17.921875 9.75 18.039062 10.460938 18.109375 L 10.460938 15.835938 L 11.996094 15.21875 L 15.433594 17.804688 C 16.171875 17.640625 16.898438 17.425781 17.601562 17.15625 L 13.96875 14.421875 L 17 13.199219 C 15.945312 10.59375 14.21875 8.3125 11.996094 6.59375 Z M 10.460938 13.871094 L 10.460938 11.382812 C 10.917969 10.71875 11.433594 10.101562 11.996094 9.527344 C 12.839844 10.378906 13.570312 11.335938 14.160156 12.378906 Z M 10.460938 13.871094 "/>
<path style=" stroke:none;fill-rule:evenodd;fill:rgb(0%,40.000001%,69.803923%);fill-opacity:1;" d="M 17.984375 16.84375 L 17.65625 16.59375 C 17.496094 15.625 17.246094 14.671875 16.90625 13.753906 L 17.175781 13.644531 C 17.554688 14.675781 17.828125 15.75 17.984375 16.84375 Z M 10.941406 18.144531 L 10.941406 17.859375 C 11.992188 17.929688 13.046875 17.894531 14.089844 17.753906 L 11.613281 15.890625 L 11.925781 15.765625 L 14.804688 17.933594 C 13.53125 18.164062 12.234375 18.234375 10.941406 18.148438 Z M 13.027344 12.003906 C 12.660156 11.453125 12.253906 10.925781 11.804688 10.4375 L 11.996094 10.222656 C 12.542969 10.816406 13.03125 11.460938 13.457031 12.144531 L 10.945312 13.160156 L 10.945312 12.847656 Z M 7.871094 17.636719 C 7.230469 17.460938 6.601562 17.25 5.988281 16.996094 L 6.035156 16.703125 C 6.539062 16.914062 7.054688 17.097656 7.582031 17.253906 L 7.582031 15.449219 L 6.667969 14.085938 L 6.785156 13.746094 L 7.871094 15.363281 Z M 7.871094 17.636719 "/>
<path style=" stroke:none;fill-rule:nonzero;fill:rgb(100%,100%,100%);fill-opacity:1;" d="M 6.136719 18.171875 C 6.375 18.261719 6.539062 18.382812 6.617188 18.464844 L 6.417969 18.8125 C 6.316406 18.730469 6.203125 18.667969 6.082031 18.617188 C 5.75 18.492188 5.492188 18.582031 5.371094 18.914062 C 5.246094 19.242188 5.386719 19.480469 5.730469 19.609375 C 5.855469 19.65625 5.988281 19.683594 6.121094 19.691406 L 6.039062 20.085938 C 5.832031 20.085938 5.625 20.042969 5.433594 19.964844 C 4.914062 19.769531 4.691406 19.320312 4.90625 18.742188 C 5.125 18.164062 5.582031 17.964844 6.136719 18.171875 Z M 7.75 19.875 L 7.066406 19.703125 L 6.886719 20.410156 L 6.410156 20.289062 L 6.871094 18.488281 L 7.347656 18.609375 L 7.175781 19.277344 L 7.859375 19.453125 L 8.03125 18.78125 L 8.503906 18.90625 L 8.046875 20.707031 L 7.570312 20.585938 Z M 9.625 19.429688 C 9.332031 19.390625 9.1875 19.535156 9.132812 19.941406 C 9.078125 20.351562 9.175781 20.53125 9.476562 20.574219 C 9.769531 20.609375 9.914062 20.464844 9.964844 20.054688 C 10.023438 19.644531 9.921875 19.46875 9.625 19.429688 Z M 9.421875 20.964844 C 8.78125 20.878906 8.554688 20.566406 8.648438 19.878906 C 8.738281 19.191406 9.042969 18.949219 9.679688 19.035156 C 10.316406 19.121094 10.542969 19.433594 10.453125 20.121094 C 10.359375 20.808594 10.058594 21.050781 9.421875 20.964844 Z M 11.582031 20.1875 C 11.914062 20.140625 12.011719 20.042969 12.015625 19.914062 C 12.015625 19.78125 11.96875 19.671875 11.722656 19.664062 L 11.328125 19.65625 L 11.316406 20.230469 Z M 10.851562 19.214844 L 11.6875 19.234375 C 12.238281 19.246094 12.507812 19.511719 12.5 19.867188 L 12.511719 21.109375 L 11.992188 21.097656 L 11.714844 20.585938 L 11.304688 20.691406 L 11.300781 21.085938 L 10.808594 21.074219 Z M 12.761719 19.242188 L 14.261719 19.101562 L 14.300781 19.472656 L 13.476562 20.636719 L 14.417969 20.546875 L 14.457031 20.949219 L 12.875 21.097656 L 12.839844 20.722656 L 13.660156 19.5625 L 12.800781 19.644531 Z M 15.671875 19.257812 L 15.613281 19.464844 L 15.351562 19.433594 L 15.359375 19.269531 C 15.128906 19.347656 15.0625 19.53125 15.132812 19.898438 C 15.214844 20.300781 15.363281 20.445312 15.660156 20.386719 C 15.949219 20.328125 16.039062 20.140625 15.957031 19.738281 C 15.902344 19.464844 15.816406 19.308594 15.671875 19.257812 Z M 15.847656 18.671875 L 15.796875 18.839844 C 16.144531 18.890625 16.339844 19.140625 16.441406 19.644531 C 16.574219 20.324219 16.363281 20.648438 15.734375 20.773438 C 15.101562 20.898438 14.785156 20.675781 14.652344 19.996094 C 14.519531 19.3125 14.726562 18.988281 15.359375 18.863281 L 15.382812 18.859375 L 15.398438 18.613281 Z M 16.398438 18.710938 L 16.855469 18.558594 L 17.417969 19.703125 L 17.371094 18.578125 L 17.753906 18.453125 L 18.394531 19.375 L 18.15625 18.125 L 18.613281 17.972656 L 18.953125 19.820312 L 18.371094 20.015625 L 17.78125 19.164062 L 17.820312 20.199219 L 17.238281 20.390625 Z M 16.015625 7.890625 C 16.269531 8.109375 16.410156 8.121094 16.511719 8.039062 C 16.613281 7.953125 16.664062 7.84375 16.503906 7.652344 L 16.253906 7.351562 L 15.8125 7.71875 Z M 16.273438 6.699219 L 16.808594 7.34375 C 17.160156 7.765625 17.136719 8.148438 16.863281 8.375 L 15.929688 9.195312 L 15.597656 8.796875 L 15.804688 8.253906 L 15.457031 8.011719 L 15.15625 8.261719 L 14.84375 7.886719 Z M 19.222656 11.039062 C 19.316406 11.222656 19.378906 11.421875 19.398438 11.628906 L 19.011719 11.746094 C 18.992188 11.613281 18.953125 11.488281 18.898438 11.367188 C 18.734375 11.039062 18.484375 10.921875 18.167969 11.074219 C 17.851562 11.226562 17.789062 11.496094 17.941406 11.8125 C 18 11.925781 18.070312 12.023438 18.167969 12.128906 L 17.84375 12.359375 C 17.699219 12.234375 17.585938 12.082031 17.503906 11.910156 C 17.242188 11.378906 17.398438 10.902344 17.949219 10.632812 C 18.503906 10.359375 18.976562 10.535156 19.222656 11.039062 Z M 16.824219 8.890625 L 17.570312 8.398438 L 17.835938 8.808594 L 17.113281 9.285156 C 16.769531 9.511719 16.699219 9.675781 16.855469 9.914062 C 17.011719 10.148438 17.191406 10.15625 17.53125 9.929688 L 18.257812 9.453125 L 18.527344 9.863281 L 17.78125 10.351562 C 17.210938 10.726562 16.832031 10.667969 16.496094 10.148438 C 16.15625 9.632812 16.253906 9.261719 16.820312 8.890625 Z M 5.167969 12.296875 L 4.675781 11.285156 L 4.910156 10.742188 L 5.351562 11.640625 L 6.597656 11.527344 L 6.386719 12.011719 L 5.566406 12.085938 L 5.804688 12.574219 L 6.089844 12.699219 L 5.894531 13.148438 L 4.1875 12.40625 L 4.382812 11.957031 Z M 6.371094 11.097656 C 6.359375 11.0625 6.394531 10.96875 6.441406 10.882812 C 6.484375 10.800781 6.539062 10.726562 6.578125 10.714844 C 6.652344 10.691406 6.917969 10.835938 6.9375 10.910156 C 6.949219 10.945312 6.914062 11.03125 6.871094 11.113281 C 6.824219 11.199219 6.765625 11.28125 6.730469 11.292969 C 6.660156 11.316406 6.386719 11.175781 6.371094 11.097656 Z M 6.925781 9.734375 C 7.15625 9.648438 7.363281 9.496094 7.507812 9.292969 C 7.585938 9.179688 7.636719 9.0625 7.546875 9 C 7.476562 8.953125 7.398438 9 7.269531 9.101562 C 6.820312 9.445312 6.539062 9.5625 6.277344 9.382812 C 5.988281 9.183594 5.992188 8.8125 6.242188 8.453125 C 6.386719 8.234375 6.605469 8.070312 6.855469 7.992188 L 7.003906 8.316406 C 6.835938 8.382812 6.6875 8.5 6.582031 8.648438 C 6.5 8.765625 6.425781 8.941406 6.503906 8.992188 C 6.601562 9.0625 6.800781 8.882812 7.003906 8.738281 C 7.171875 8.617188 7.492188 8.410156 7.808594 8.628906 C 8.09375 8.828125 8.097656 9.1875 7.847656 9.550781 C 7.667969 9.816406 7.402344 10.011719 7.097656 10.105469 Z M 8.089844 8.457031 C 8.085938 8.417969 8.136719 8.332031 8.199219 8.257812 C 8.257812 8.183594 8.328125 8.121094 8.363281 8.117188 C 8.441406 8.109375 8.675781 8.296875 8.683594 8.375 C 8.6875 8.414062 8.636719 8.492188 8.578125 8.5625 C 8.515625 8.640625 8.445312 8.707031 8.40625 8.714844 C 8.332031 8.726562 8.09375 8.53125 8.089844 8.457031 Z M 18.972656 13.542969 L 18.734375 12.875 L 18.042969 13.121094 L 17.882812 12.660156 L 19.632812 12.039062 L 19.800781 12.5 L 19.144531 12.730469 L 19.382812 13.394531 L 20.035156 13.164062 L 20.199219 13.625 L 18.445312 14.246094 L 18.28125 13.785156 Z M 18.972656 13.542969 "/>
</g>
</svg>
