<?xml version="1.0" encoding="UTF-8"?>
<svg xmlns="http://www.w3.org/2000/svg" xmlns:xlink="http://www.w3.org/1999/xlink" width="24px" height="24px" viewBox="0 0 24 23" version="1.1">
<g id="surface1">
<path style=" stroke:none;fill-rule:evenodd;fill:rgb(77.64706%,66.666669%,41.568628%);fill-opacity:1;" d="M 9.078125 14.363281 L 9.078125 12.148438 C 9.113281 12.195312 9.148438 12.234375 9.191406 12.273438 L 9.167969 12.175781 C 9.128906 12.117188 9.101562 12.058594 9.078125 11.992188 L 9.078125 10.175781 C 9.117188 9.90625 9.171875 9.609375 9.238281 9.289062 L 9.167969 9.34375 C 9.136719 9.527344 9.105469 9.699219 9.078125 9.859375 L 9.078125 8.898438 L 10.179688 7.4375 L 9.96875 10.410156 C 9.691406 11.335938 9.667969 12.519531 9.582031 13.257812 C 9.542969 13.570312 9.671875 13.8125 9.558594 13.917969 Z M 9.078125 8.898438 L 9.078125 9.859375 C 8.839844 11.328125 8.886719 11.871094 9.078125 12.148438 L 9.078125 14.363281 L 8.785156 14.636719 L 8.785156 13.8125 C 8.800781 13.859375 8.816406 13.914062 8.832031 13.964844 L 8.847656 13.859375 C 8.824219 13.761719 8.804688 13.664062 8.785156 13.570312 L 8.785156 12.566406 C 8.816406 12.453125 8.855469 12.339844 8.914062 12.226562 L 8.871094 12.136719 C 8.839844 12.207031 8.8125 12.28125 8.785156 12.355469 L 8.785156 9.285156 Z M 9.078125 10.175781 C 8.949219 11.027344 8.945312 11.621094 9.078125 11.992188 Z M 7.949219 15.410156 L 8.273438 15.109375 C 8.148438 14.839844 8.039062 14.566406 7.949219 14.289062 Z M 8.785156 9.285156 L 8.785156 12.355469 C 8.5625 12.996094 8.671875 13.40625 8.785156 13.8125 L 8.785156 14.636719 L 8.367188 15.019531 C 8.261719 14.820312 8.171875 14.617188 8.089844 14.40625 C 8.0625 13.867188 8.105469 13.335938 8.480469 12.976562 L 8.542969 12.789062 C 8.121094 13.230469 7.96875 13.695312 8.011719 14.179688 C 7.988281 14.113281 7.96875 14.046875 7.949219 13.980469 L 7.949219 10.394531 Z M 8.785156 12.566406 C 8.699219 12.898438 8.726562 13.234375 8.785156 13.570312 Z M 7.707031 15.636719 L 7.949219 15.410156 L 7.949219 14.289062 C 7.796875 13.8125 7.695312 13.3125 7.679688 12.832031 C 7.625 12.207031 7.867188 11.5 7.5625 10.90625 L 7.273438 11.289062 L 7.273438 13.511719 C 7.390625 13.226562 7.511719 13.03125 7.5625 13.042969 C 7.441406 13.285156 7.347656 13.519531 7.273438 13.742188 L 7.273438 15.800781 C 7.3125 15.796875 7.347656 15.785156 7.371094 15.765625 C 7.507812 15.644531 7.664062 15.671875 7.707031 15.636719 Z M 7.949219 10.394531 L 7.949219 13.980469 C 7.84375 13.605469 7.777344 13.222656 7.757812 12.839844 C 7.726562 12.171875 7.921875 11.460938 7.625 10.824219 Z M 7.273438 11.289062 L 6.535156 12.269531 C 6.292969 12.589844 6.699219 13.011719 6.617188 13.261719 C 6.480469 13.671875 6.199219 13.820312 6.054688 14.054688 C 5.953125 14.214844 5.925781 14.421875 5.949219 14.699219 C 5.964844 14.875 6.054688 15.175781 6.300781 15.386719 C 6.445312 15.511719 7.015625 15.816406 7.273438 15.800781 L 7.273438 13.742188 C 7.039062 14.464844 7.042969 15.066406 7.183594 15.378906 C 7.195312 15.40625 7.164062 15.503906 7.144531 15.472656 C 6.824219 15 7.042969 14.078125 7.273438 13.511719 Z M 7.273438 11.289062 "/>
<path style=" stroke:none;fill-rule:evenodd;fill:rgb(80.000001%,13.333334%,16.078432%);fill-opacity:1;" d="M 13.527344 11.507812 L 9.40625 18.992188 C 15.710938 17.765625 19.101562 11.257812 16.679688 5.78125 Z M 13.527344 11.507812 "/>
<path style=" stroke:none;fill-rule:evenodd;fill:rgb(77.64706%,66.666669%,41.568628%);fill-opacity:1;" d="M 16.707031 5.136719 C 17.335938 6.578125 17.75 7.945312 17.757812 9.535156 C 17.726562 10.894531 17.484375 12.074219 16.964844 13.339844 C 16.164062 15.070312 14.972656 16.496094 13.425781 17.570312 L 13.425781 17.261719 C 17.011719 14.675781 18.515625 9.929688 16.679688 5.78125 L 13.527344 11.507812 L 13.425781 11.683594 L 13.425781 7.175781 C 14.714844 6.960938 15.910156 6.390625 16.707031 5.136719 Z M 13.425781 17.570312 C 12.972656 17.890625 12.492188 18.175781 11.980469 18.433594 C 10.933594 18.902344 9.988281 19.148438 8.859375 19.390625 C 10.203125 17.171875 10.570312 15.753906 10.546875 14.480469 C 10.527344 13.105469 10.515625 11.652344 10.035156 10.433594 C 9.789062 9.8125 9.554688 9.1875 9.242188 8.597656 C 8.628906 7.441406 7.898438 6.644531 7.050781 5.699219 C 7.042969 5.691406 7.039062 5.679688 7.035156 5.664062 L 7.035156 5.644531 C 7.050781 5.574219 7.152344 5.503906 7.226562 5.542969 C 8.324219 6.496094 10.148438 7.289062 12 7.289062 C 12.476562 7.289062 12.957031 7.257812 13.429688 7.175781 L 13.429688 11.683594 L 9.40625 18.992188 C 10.929688 18.695312 12.28125 18.085938 13.429688 17.261719 L 13.429688 17.570312 Z M 13.425781 17.570312 "/>
<path style=" stroke:none;fill-rule:evenodd;fill:rgb(100%,100%,100%);fill-opacity:1;" d="M 16.058594 6.3125 L 13.269531 11.378906 L 10.632812 16.171875 L 10.65625 16.070312 L 10.691406 15.929688 L 10.71875 15.785156 L 10.746094 15.648438 L 10.785156 15.375 L 10.800781 15.242188 L 10.8125 15.113281 L 10.824219 14.980469 L 10.832031 14.851562 L 10.835938 14.726562 L 10.835938 14.476562 L 10.832031 14.34375 L 10.832031 14.085938 L 10.824219 13.828125 L 10.824219 13.695312 L 10.820312 13.5625 L 10.8125 13.429688 L 10.804688 13.164062 L 10.796875 13.035156 L 10.773438 12.636719 L 10.761719 12.503906 L 10.75 12.375 L 10.738281 12.242188 L 10.722656 12.109375 L 10.703125 11.980469 L 10.6875 11.847656 L 10.648438 11.589844 L 10.621094 11.460938 L 10.597656 11.332031 L 10.566406 11.203125 L 10.535156 11.078125 L 10.503906 10.949219 L 10.472656 10.828125 L 10.433594 10.703125 L 10.390625 10.578125 L 10.304688 10.335938 L 10.277344 10.277344 L 10.257812 10.21875 L 10.210938 10.101562 L 10.1875 10.046875 L 10.164062 9.988281 L 10.144531 9.929688 L 10.117188 9.871094 L 10.097656 9.8125 L 9.980469 9.519531 L 9.953125 9.460938 L 9.933594 9.402344 L 9.90625 9.34375 L 9.859375 9.226562 L 9.804688 9.109375 L 9.78125 9.050781 L 9.671875 8.816406 L 9.644531 8.761719 L 9.589844 8.644531 L 9.496094 8.46875 L 9.4375 8.363281 L 9.378906 8.253906 L 9.316406 8.144531 L 9.257812 8.042969 L 9.191406 7.941406 L 9.066406 7.738281 L 9.003906 7.640625 L 8.9375 7.546875 L 8.871094 7.449219 L 8.804688 7.355469 L 8.738281 7.265625 L 8.671875 7.171875 L 8.601562 7.082031 L 8.535156 6.992188 L 8.394531 6.8125 L 8.320312 6.726562 L 8.179688 6.554688 L 8.164062 6.53125 L 8.164062 6.535156 L 8.308594 6.613281 L 8.453125 6.6875 L 8.601562 6.761719 L 8.90625 6.902344 L 9.0625 6.964844 L 9.222656 7.03125 L 9.550781 7.148438 L 9.714844 7.199219 L 9.882812 7.253906 L 10.054688 7.300781 L 10.222656 7.34375 L 10.398438 7.386719 L 10.570312 7.417969 L 10.746094 7.453125 L 10.921875 7.484375 L 11.101562 7.507812 L 11.277344 7.527344 L 11.460938 7.542969 L 11.640625 7.554688 L 11.820312 7.5625 L 12.171875 7.5625 L 12.347656 7.558594 L 12.519531 7.550781 L 12.695312 7.539062 L 12.867188 7.527344 L 13.039062 7.507812 L 13.214844 7.488281 L 13.386719 7.464844 L 13.730469 7.402344 L 14.066406 7.324219 L 14.234375 7.277344 L 14.398438 7.222656 L 14.566406 7.167969 L 14.730469 7.109375 L 15.050781 6.96875 L 15.207031 6.890625 L 15.363281 6.804688 L 15.511719 6.714844 L 15.660156 6.617188 L 15.808594 6.515625 L 15.949219 6.40625 Z M 15 13.617188 L 15 13.285156 L 15.328125 12.695312 L 15.507812 12.789062 L 15.039062 13.640625 Z M 15 12.363281 L 15 12.089844 L 15.035156 12.109375 L 15.324219 11.585938 L 15.507812 11.675781 L 15.21875 12.203125 L 15.515625 12.351562 L 15.835938 11.765625 L 16.019531 11.863281 L 15.582031 12.65625 Z M 15 11.609375 L 15.105469 11.421875 L 15 11.371094 Z M 15 11.238281 L 15 11.179688 L 15.089844 11.015625 L 15.925781 11.238281 L 15.28125 10.667969 L 15.421875 10.417969 L 16.28125 10.617188 L 15.609375 10.074219 L 15.726562 9.859375 L 16.679688 10.667969 L 16.554688 10.890625 L 15.625 10.683594 L 16.328125 11.304688 L 16.199219 11.53125 Z M 14.0625 15.34375 L 14.089844 15.367188 L 14.0625 15.417969 Z M 15 11.179688 L 15 11.238281 L 14.972656 11.234375 Z M 15 11.371094 L 15 11.609375 L 14.792969 11.984375 L 15 12.089844 L 15 12.363281 L 14.492188 12.105469 L 14.917969 11.332031 Z M 15 13.285156 L 14.996094 13.292969 L 14.578125 12.347656 L 14.40625 12.261719 L 14.0625 12.886719 L 14.0625 13.0625 L 14.167969 13.117188 L 14.4375 12.632812 L 14.84375 13.535156 L 15 13.617188 Z M 14.0625 14.898438 L 14.0625 14.632812 L 14.398438 14.800781 L 14.285156 15.011719 Z M 14.0625 14.375 L 14.0625 14.105469 L 14.445312 14.296875 L 14.53125 14.140625 C 14.5625 14.082031 14.582031 14.039062 14.589844 14.007812 C 14.601562 13.96875 14.601562 13.933594 14.59375 13.902344 C 14.582031 13.867188 14.558594 13.832031 14.515625 13.792969 C 14.472656 13.753906 14.414062 13.710938 14.328125 13.667969 C 14.242188 13.625 14.175781 13.601562 14.121094 13.59375 C 14.101562 13.589844 14.082031 13.585938 14.0625 13.585938 L 14.0625 13.351562 C 14.101562 13.351562 14.140625 13.351562 14.179688 13.359375 C 14.261719 13.375 14.355469 13.40625 14.457031 13.457031 C 14.546875 13.503906 14.621094 13.550781 14.671875 13.605469 C 14.738281 13.671875 14.78125 13.742188 14.804688 13.816406 C 14.820312 13.871094 14.824219 13.933594 14.808594 14.007812 C 14.800781 14.0625 14.769531 14.125 14.730469 14.207031 L 14.511719 14.605469 Z M 13.640625 15.308594 L 13.695312 15.320312 L 13.640625 15.277344 L 13.640625 14.988281 L 14.0625 15.34375 L 14.0625 15.417969 L 13.964844 15.589844 L 13.640625 15.519531 Z M 13.640625 15.921875 L 13.738281 16.007812 L 13.640625 16.179688 Z M 14.0625 12.886719 L 14.0625 13.0625 L 13.984375 13.027344 Z M 14.0625 13.351562 L 14.0625 13.585938 C 14.03125 13.585938 14.007812 13.59375 13.984375 13.601562 C 13.945312 13.613281 13.910156 13.636719 13.878906 13.671875 C 13.855469 13.699219 13.820312 13.753906 13.773438 13.839844 L 13.722656 13.933594 L 14.0625 14.105469 L 14.0625 14.375 L 13.640625 14.164062 L 13.640625 13.648438 C 13.6875 13.570312 13.726562 13.511719 13.761719 13.476562 C 13.8125 13.425781 13.878906 13.390625 13.949219 13.371094 C 13.984375 13.359375 14.023438 13.355469 14.0625 13.351562 Z M 14.0625 14.632812 L 14.0625 14.898438 L 13.640625 14.691406 L 13.640625 14.417969 Z M 13.613281 16.234375 L 12.382812 15.933594 L 12.5 15.71875 L 13.339844 15.9375 L 12.695312 15.371094 L 12.832031 15.117188 L 13.640625 15.308594 L 13.640625 15.519531 L 13.039062 15.386719 L 13.640625 15.921875 L 13.640625 16.179688 Z M 13.640625 15.277344 L 13.640625 14.988281 L 13.140625 14.5625 L 13.019531 14.773438 Z M 13.640625 13.648438 L 13.640625 14.164062 L 13.421875 14.050781 L 13.632812 13.667969 Z M 13.640625 14.417969 L 13.640625 14.691406 L 13.195312 14.464844 L 13.308594 14.253906 Z M 13.640625 14.417969 "/>
<path style=" stroke:none;fill-rule:evenodd;fill:rgb(77.64706%,66.666669%,41.568628%);fill-opacity:1;" d="M 13.296875 9.820312 L 13.390625 9.617188 C 13.464844 9.640625 13.53125 9.640625 13.582031 9.625 C 13.632812 9.605469 13.675781 9.566406 13.710938 9.503906 C 13.75 9.441406 13.761719 9.386719 13.75 9.339844 C 13.742188 9.292969 13.71875 9.257812 13.683594 9.238281 C 13.660156 9.226562 13.632812 9.21875 13.609375 9.226562 C 13.585938 9.230469 13.554688 9.246094 13.523438 9.273438 C 13.5 9.292969 13.453125 9.335938 13.386719 9.40625 C 13.296875 9.5 13.222656 9.554688 13.15625 9.578125 C 13.070312 9.609375 12.976562 9.601562 12.898438 9.558594 C 12.84375 9.53125 12.804688 9.488281 12.777344 9.4375 C 12.746094 9.382812 12.734375 9.324219 12.742188 9.261719 C 12.75 9.195312 12.777344 9.125 12.820312 9.046875 C 12.890625 8.925781 12.972656 8.847656 13.0625 8.816406 C 13.15625 8.785156 13.25 8.792969 13.347656 8.835938 L 13.242188 9.039062 C 13.183594 9.019531 13.136719 9.019531 13.097656 9.035156 C 13.054688 9.050781 13.019531 9.085938 12.992188 9.140625 C 12.953125 9.199219 12.941406 9.25 12.945312 9.292969 C 12.953125 9.324219 12.964844 9.347656 12.992188 9.359375 C 13.019531 9.375 13.042969 9.375 13.074219 9.367188 C 13.109375 9.351562 13.167969 9.300781 13.246094 9.21875 C 13.324219 9.136719 13.390625 9.078125 13.445312 9.042969 C 13.492188 9.011719 13.550781 8.996094 13.613281 8.992188 C 13.667969 8.988281 13.734375 9.003906 13.796875 9.039062 C 13.855469 9.070312 13.898438 9.117188 13.933594 9.171875 C 13.964844 9.234375 13.980469 9.300781 13.972656 9.367188 C 13.964844 9.4375 13.933594 9.515625 13.882812 9.601562 C 13.8125 9.722656 13.726562 9.800781 13.628906 9.839844 C 13.53125 9.875 13.417969 9.867188 13.296875 9.820312 Z M 13.304688 10.5625 L 11.980469 9.855469 L 11.816406 10.148438 L 11.640625 10.054688 L 12.089844 9.277344 L 12.261719 9.367188 L 12.09375 9.65625 L 13.417969 10.363281 Z M 12.601562 11.769531 L 12.085938 11.496094 L 12.085938 11.234375 L 12.125 11.257812 L 12.210938 11.113281 C 12.265625 11.015625 12.296875 10.953125 12.300781 10.925781 C 12.304688 10.898438 12.304688 10.871094 12.289062 10.847656 C 12.277344 10.824219 12.257812 10.804688 12.226562 10.789062 C 12.191406 10.769531 12.15625 10.765625 12.128906 10.769531 C 12.113281 10.769531 12.097656 10.777344 12.085938 10.785156 L 12.085938 10.542969 C 12.101562 10.539062 12.125 10.535156 12.144531 10.53125 C 12.210938 10.527344 12.273438 10.542969 12.332031 10.578125 C 12.410156 10.617188 12.457031 10.671875 12.484375 10.742188 C 12.507812 10.8125 12.5 10.894531 12.464844 10.988281 C 12.511719 10.960938 12.558594 10.941406 12.613281 10.925781 C 12.660156 10.914062 12.738281 10.90625 12.84375 10.902344 L 13.113281 10.886719 L 12.976562 11.125 L 12.667969 11.152344 C 12.5625 11.160156 12.492188 11.167969 12.460938 11.175781 C 12.425781 11.183594 12.402344 11.191406 12.382812 11.210938 C 12.363281 11.226562 12.339844 11.257812 12.3125 11.304688 L 12.289062 11.34375 L 12.714844 11.574219 Z M 12.085938 11.496094 L 11.582031 11.226562 L 11.824219 10.808594 C 11.882812 10.703125 11.9375 10.632812 11.980469 10.59375 C 12.015625 10.570312 12.046875 10.550781 12.085938 10.542969 L 12.085938 10.785156 C 12.074219 10.796875 12.058594 10.804688 12.046875 10.820312 C 12.035156 10.835938 12.007812 10.886719 11.960938 10.964844 L 11.871094 11.121094 L 12.085938 11.234375 Z M 15.511719 2.328125 C 16.832031 2.351562 17.828125 2.515625 18.503906 2.769531 C 18.253906 2.8125 18.011719 2.894531 17.792969 3.015625 C 17.542969 2.980469 17.265625 2.96875 16.976562 3.03125 C 16.839844 3.0625 17.027344 3.21875 17.292969 3.394531 C 17.148438 3.535156 17.03125 3.691406 16.9375 3.867188 C 16.597656 3.855469 16.289062 3.878906 16.355469 3.984375 C 16.449219 4.144531 16.585938 4.273438 16.734375 4.382812 C 16.703125 4.535156 16.683594 4.6875 16.683594 4.839844 L 16.683594 4.859375 C 16.152344 4.53125 15.667969 4.03125 15.460938 3.375 C 15.742188 3.332031 16.023438 3.347656 16.308594 3.425781 C 15.953125 3.183594 15.679688 2.8125 15.511719 2.328125 Z M 21.398438 6.027344 C 21.765625 6.75 22.023438 7.449219 22.066406 8.039062 L 22.066406 8.359375 C 22.042969 8.636719 21.960938 8.878906 21.800781 9.074219 C 21.671875 9.234375 21.65625 9.746094 21.417969 9.808594 C 21.414062 9.8125 21.40625 9.8125 21.398438 9.8125 L 21.398438 8.9375 C 21.445312 8.96875 21.5 8.988281 21.519531 8.945312 C 21.769531 8.363281 21.542969 7.46875 21.398438 7.140625 Z M 21.007812 5.316406 C 21.144531 5.550781 21.277344 5.789062 21.398438 6.027344 L 21.398438 7.140625 C 21.359375 7.046875 21.324219 6.996094 21.308594 7.015625 C 21.117188 7.648438 21.128906 8.273438 21.3125 8.839844 C 21.324219 8.871094 21.359375 8.910156 21.398438 8.9375 L 21.398438 9.8125 C 21.167969 9.859375 20.945312 9.648438 20.703125 9.601562 C 20.589844 9.578125 20.484375 9.546875 20.378906 9.511719 L 20.378906 8.839844 C 20.464844 8.960938 20.5625 9.074219 20.675781 9.175781 C 20.730469 9.21875 20.769531 9 20.757812 8.945312 C 20.699219 8.53125 20.5625 8.238281 20.378906 8.054688 L 20.378906 7.386719 C 20.535156 7.734375 20.683594 8.105469 20.824219 8.464844 C 20.730469 8.023438 20.5625 7.523438 20.378906 7.0625 L 20.378906 6.363281 C 20.691406 6.082031 20.910156 5.71875 21.007812 5.316406 Z M 20.378906 9.511719 C 19.367188 9.15625 18.691406 8.128906 18.21875 6.84375 C 18.820312 7.027344 19.476562 6.949219 20.015625 6.632812 C 20.144531 6.878906 20.265625 7.128906 20.378906 7.386719 L 20.378906 8.054688 C 20.265625 7.941406 20.136719 7.867188 20 7.832031 C 20.089844 8.214844 20.191406 8.550781 20.378906 8.839844 Z M 20.378906 7.0625 L 20.378906 6.363281 C 20.3125 6.425781 20.234375 6.488281 20.15625 6.542969 C 20.234375 6.714844 20.3125 6.886719 20.378906 7.0625 Z M 20.378906 7.0625 "/>
<path style=" stroke:none;fill-rule:evenodd;fill:rgb(77.64706%,66.666669%,41.568628%);fill-opacity:1;" d="M 22.519531 8.21875 C 22.6875 9.210938 22.863281 10.148438 22.925781 10.96875 C 22.9375 11.0625 22.941406 11.160156 22.941406 11.25 L 22.941406 11.402344 C 22.925781 12.292969 22.628906 13 22.054688 13.445312 L 22.054688 13.101562 C 22.410156 12.53125 22.617188 11.378906 22.4375 11.578125 C 22.296875 11.730469 22.167969 11.894531 22.054688 12.066406 L 22.054688 8.988281 C 22.1875 8.71875 22.34375 8.464844 22.519531 8.21875 Z M 22.054688 13.445312 C 21.953125 13.523438 21.84375 13.59375 21.726562 13.652344 C 21.65625 13.902344 21.488281 14.023438 21.21875 14.015625 C 21.105469 14.011719 21.019531 13.960938 20.972656 13.882812 L 20.972656 13.230469 C 21.023438 13.308594 21.074219 13.355469 21.125 13.359375 C 21.371094 13.375 21.1875 11.960938 20.972656 11.699219 L 20.972656 10.007812 C 21.171875 10.15625 21.316406 10.320312 21.367188 10.511719 C 21.546875 11.207031 21.484375 11.765625 21.574219 12.429688 C 21.621094 11.738281 21.675781 11.277344 21.636719 10.664062 C 21.605469 10.097656 21.796875 9.503906 22.054688 8.984375 L 22.054688 12.066406 C 21.574219 12.800781 21.519531 13.441406 21.714844 13.402344 C 21.835938 13.382812 21.953125 13.265625 22.054688 13.101562 Z M 20.972656 13.882812 C 20.933594 13.816406 20.917969 13.726562 20.945312 13.628906 C 20.617188 13.292969 20.320312 12.914062 20.21875 12.445312 C 20.09375 11.839844 20.03125 11.296875 20.0625 10.730469 C 20.089844 10.164062 19.746094 9.714844 19.480469 9.285156 C 19.957031 9.496094 20.570312 9.714844 20.972656 10.007812 L 20.972656 11.699219 C 20.941406 11.660156 20.90625 11.644531 20.875 11.667969 C 20.546875 11.882812 20.738281 12.875 20.972656 13.230469 Z M 20.59375 15.402344 C 20.742188 15.046875 20.867188 14.703125 20.886719 14.375 C 20.898438 14.109375 20.777344 13.84375 20.59375 13.570312 Z M 20.59375 17.34375 L 20.59375 17.035156 C 20.84375 16.867188 21.085938 16.578125 21.324219 16.066406 C 21.457031 15.777344 21.023438 16.0625 20.59375 16.429688 L 20.59375 15.699219 C 20.820312 15.324219 20.992188 15 21.128906 14.703125 C 21.480469 13.914062 22.292969 13.449219 22.886719 13.039062 C 22.628906 14.074219 22.320312 15.03125 22.003906 15.84375 C 21.730469 16.554688 21.074219 17.109375 20.59375 17.34375 Z M 20.238281 16.269531 C 20.339844 15.976562 20.476562 15.6875 20.59375 15.402344 L 20.59375 13.570312 C 20.40625 13.292969 20.15625 13.011719 19.9375 12.722656 L 19.9375 15.351562 C 20.050781 15.355469 20.027344 15.667969 19.9375 16.023438 L 19.9375 17.089844 C 20.0625 16.917969 20.328125 16.65625 20.59375 16.429688 L 20.59375 15.699219 C 20.488281 15.878906 20.367188 16.066406 20.238281 16.269531 Z M 19.9375 17.496094 L 19.9375 17.285156 C 19.945312 17.28125 19.953125 17.28125 19.960938 17.28125 C 20.183594 17.238281 20.390625 17.175781 20.59375 17.035156 L 20.59375 17.34375 C 20.441406 17.417969 20.3125 17.457031 20.210938 17.460938 C 20.125 17.464844 20.027344 17.476562 19.9375 17.496094 Z M 19.9375 12.722656 C 19.933594 12.71875 19.933594 12.714844 19.929688 12.710938 C 19.941406 13.101562 19.839844 13.609375 19.65625 14.113281 L 19.65625 15.625 C 19.738281 15.492188 19.824219 15.394531 19.894531 15.363281 C 19.90625 15.355469 19.921875 15.351562 19.9375 15.351562 Z M 19.65625 17.601562 C 19.714844 17.558594 19.820312 17.519531 19.9375 17.496094 L 19.9375 17.285156 C 19.832031 17.296875 19.847656 17.214844 19.9375 17.089844 L 19.9375 16.023438 C 19.867188 16.300781 19.761719 16.609375 19.65625 16.804688 Z M 19.65625 14.113281 C 19.644531 14.148438 19.628906 14.183594 19.617188 14.21875 C 19.425781 14.695312 19.171875 15.152344 19.058594 15.59375 C 19.011719 15.777344 18.984375 15.964844 18.980469 16.15625 L 18.980469 16.277344 C 18.988281 16.527344 19.027344 16.765625 19.089844 16.996094 C 19.125 17.132812 18.953125 17.625 19.207031 17.664062 C 19.40625 17.699219 19.5625 17.675781 19.65625 17.601562 L 19.65625 16.804688 C 19.570312 16.96875 19.484375 17.058594 19.417969 17.007812 C 19.144531 16.777344 19.398438 16.035156 19.65625 15.625 Z M 17.320312 19.230469 C 17.742188 18.917969 18.136719 18.644531 18.507812 18.234375 C 19.066406 17.609375 18.921875 16.632812 18.792969 15.792969 C 18.613281 16.09375 18.449219 16.394531 18.234375 16.628906 C 17.921875 16.964844 17.609375 17.261719 17.320312 17.546875 L 17.320312 18.339844 C 17.542969 18.097656 17.769531 17.933594 17.859375 18.039062 C 17.964844 18.167969 17.632812 18.621094 17.320312 18.957031 Z M 17.320312 20.113281 L 17.320312 19.839844 C 17.59375 19.890625 18.359375 19.671875 18.980469 19.164062 C 19.332031 18.875 17.769531 19.210938 17.320312 19.554688 L 17.320312 19.285156 C 17.714844 19.066406 17.996094 18.957031 18.769531 18.140625 C 18.949219 17.949219 19.304688 17.746094 19.726562 17.707031 C 20.25 17.652344 20.777344 17.488281 21.289062 17.3125 C 20.808594 17.941406 20.292969 18.542969 19.742188 19.117188 C 19.210938 19.671875 18.617188 19.941406 18.113281 20.109375 C 17.871094 20.1875 17.570312 20.171875 17.320312 20.113281 Z M 16.996094 19.476562 C 17.101562 19.394531 17.210938 19.3125 17.320312 19.230469 L 17.320312 18.957031 C 17.128906 19.160156 16.949219 19.320312 16.875 19.332031 C 16.5625 19.386719 16.9375 18.75 17.320312 18.339844 L 17.320312 17.546875 C 17.226562 17.640625 17.132812 17.730469 17.046875 17.820312 C 16.597656 18.289062 16.625 18.855469 16.460938 19.363281 C 16.421875 19.492188 16.351562 19.578125 16.34375 19.667969 L 16.34375 19.695312 C 16.347656 19.730469 16.359375 19.769531 16.390625 19.808594 C 16.539062 20.003906 16.707031 19.945312 16.898438 19.980469 C 17.078125 20.007812 17.15625 20.074219 17.308594 20.109375 C 17.308594 20.113281 17.316406 20.113281 17.320312 20.113281 L 17.320312 19.839844 C 17.277344 19.832031 17.246094 19.816406 17.230469 19.796875 C 17.164062 19.71875 17.207031 19.636719 17.320312 19.554688 L 17.320312 19.285156 C 17.21875 19.339844 17.117188 19.398438 16.996094 19.476562 Z M 16.507812 18.0625 C 16.570312 18.679688 16.394531 19.335938 15.730469 20.097656 C 15.476562 20.207031 15.242188 20.300781 15.023438 20.375 L 15.023438 19.859375 C 15.222656 19.710938 15.328125 19.59375 15.230469 19.582031 C 15.160156 19.574219 15.09375 19.570312 15.023438 19.574219 L 15.023438 18.910156 C 15.179688 18.859375 15.347656 18.816406 15.539062 18.761719 C 15.984375 18.640625 16.335938 18.257812 16.507812 18.0625 Z M 15.023438 21.660156 C 15.863281 21.605469 16.902344 21.0625 18.152344 20.398438 C 17.558594 20.367188 17.0625 20.324219 16.605469 20.132812 C 16.3125 20.003906 15.972656 20.054688 15.761719 20.125 C 15.523438 20.246094 15.277344 20.347656 15.023438 20.429688 L 15.023438 20.800781 C 15.515625 20.820312 15.957031 20.890625 15.835938 20.988281 C 15.644531 21.132812 15.339844 21.222656 15.023438 21.25 Z M 15.023438 20.375 C 14.363281 20.597656 13.878906 20.648438 13.53125 20.539062 C 13.671875 20.074219 13.882812 19.660156 14.214844 19.363281 C 14.46875 19.140625 14.722656 19.015625 15.023438 18.910156 L 15.023438 19.574219 C 14.3125 19.621094 13.644531 20.277344 13.738281 20.441406 C 13.828125 20.597656 14.617188 20.164062 15.023438 19.859375 Z M 15.023438 20.429688 C 14.566406 20.585938 14.0625 20.6875 13.527344 20.753906 C 13.847656 21.375 14.300781 21.667969 14.886719 21.667969 C 14.929688 21.667969 14.976562 21.664062 15.023438 21.660156 L 15.023438 21.25 C 14.582031 21.292969 14.117188 21.210938 13.929688 21 C 13.78125 20.828125 14.4375 20.777344 15.023438 20.804688 Z M 12.382812 19.363281 L 13.246094 19.363281 L 11.683594 21.964844 L 10.777344 21.964844 Z M 11.640625 19.363281 L 10.777344 19.363281 L 11.507812 20.574219 L 11.945312 19.859375 Z M 12.082031 21.523438 L 12.34375 21.964844 L 13.246094 21.964844 L 12.519531 20.792969 Z M 8.488281 2.328125 C 7.171875 2.351562 6.171875 2.515625 5.5 2.769531 C 5.75 2.8125 5.988281 2.894531 6.207031 3.015625 C 6.457031 2.980469 6.734375 2.96875 7.023438 3.03125 C 7.164062 3.0625 6.976562 3.21875 6.710938 3.394531 C 6.851562 3.535156 6.96875 3.695312 7.066406 3.867188 C 7.402344 3.855469 7.710938 3.878906 7.644531 3.984375 C 7.550781 4.144531 7.417969 4.273438 7.265625 4.382812 C 7.300781 4.53125 7.316406 4.683594 7.316406 4.839844 L 7.316406 4.859375 C 7.847656 4.53125 8.332031 4.03125 8.542969 3.375 C 8.257812 3.332031 7.96875 3.347656 7.695312 3.425781 C 8.050781 3.183594 8.320312 2.8125 8.488281 2.328125 Z M 3.621094 9.511719 C 4.636719 9.15625 5.308594 8.128906 5.78125 6.84375 C 5.578125 6.90625 5.355469 6.941406 5.125 6.941406 C 4.707031 6.941406 4.320312 6.828125 3.988281 6.632812 C 3.855469 6.878906 3.734375 7.128906 3.621094 7.386719 L 3.621094 8.054688 C 3.734375 7.941406 3.863281 7.867188 4 7.832031 C 3.910156 8.214844 3.808594 8.550781 3.621094 8.839844 Z M 3.621094 7.0625 L 3.621094 6.363281 C 3.691406 6.425781 3.765625 6.488281 3.84375 6.542969 C 3.769531 6.707031 3.695312 6.882812 3.621094 7.0625 Z M 2.992188 5.316406 C 2.855469 5.550781 2.722656 5.789062 2.601562 6.027344 L 2.601562 7.140625 C 2.640625 7.046875 2.675781 6.996094 2.691406 7.015625 C 2.886719 7.648438 2.871094 8.273438 2.6875 8.839844 C 2.675781 8.871094 2.640625 8.910156 2.601562 8.9375 L 2.601562 9.8125 C 2.832031 9.859375 3.058594 9.648438 3.300781 9.601562 C 3.410156 9.578125 3.515625 9.550781 3.621094 9.511719 L 3.621094 8.839844 C 3.539062 8.964844 3.4375 9.078125 3.324219 9.175781 C 3.269531 9.21875 3.234375 9 3.242188 8.945312 C 3.304688 8.53125 3.441406 8.238281 3.621094 8.054688 L 3.621094 7.386719 C 3.464844 7.734375 3.316406 8.105469 3.175781 8.464844 C 3.269531 8.023438 3.4375 7.523438 3.621094 7.0625 L 3.621094 6.363281 C 3.308594 6.082031 3.09375 5.71875 2.992188 5.316406 Z M 2.601562 6.027344 C 2.234375 6.746094 1.976562 7.449219 1.933594 8.039062 L 1.933594 8.359375 C 1.957031 8.636719 2.039062 8.878906 2.199219 9.074219 C 2.328125 9.234375 2.34375 9.746094 2.582031 9.808594 C 2.589844 9.8125 2.59375 9.8125 2.601562 9.8125 L 2.601562 8.9375 C 2.554688 8.96875 2.5 8.988281 2.484375 8.945312 C 2.234375 8.363281 2.457031 7.46875 2.601562 7.140625 Z M 2.601562 6.027344 "/>
<path style=" stroke:none;fill-rule:evenodd;fill:rgb(77.64706%,66.666669%,41.568628%);fill-opacity:1;" d="M 3.027344 13.882812 C 3.070312 13.816406 3.082031 13.726562 3.058594 13.628906 C 3.382812 13.292969 3.679688 12.914062 3.78125 12.445312 C 3.910156 11.839844 3.96875 11.296875 3.941406 10.730469 C 3.910156 10.164062 4.253906 9.714844 4.523438 9.285156 C 4.046875 9.496094 3.429688 9.714844 3.03125 10.007812 L 3.03125 11.699219 C 3.058594 11.660156 3.09375 11.644531 3.125 11.667969 C 3.453125 11.882812 3.261719 12.875 3.03125 13.230469 L 3.03125 13.882812 Z M 1.945312 13.445312 C 2.050781 13.523438 2.160156 13.59375 2.273438 13.652344 C 2.34375 13.902344 2.511719 14.023438 2.78125 14.015625 C 2.898438 14.011719 2.980469 13.960938 3.027344 13.882812 L 3.027344 13.230469 C 2.980469 13.308594 2.925781 13.355469 2.878906 13.359375 C 2.628906 13.375 2.8125 11.960938 3.027344 11.699219 L 3.027344 10.007812 C 2.832031 10.15625 2.6875 10.320312 2.636719 10.511719 C 2.453125 11.207031 2.519531 11.765625 2.425781 12.429688 C 2.382812 11.738281 2.324219 11.277344 2.363281 10.664062 C 2.398438 10.097656 2.207031 9.503906 1.945312 8.984375 L 1.945312 12.066406 C 2.429688 12.800781 2.480469 13.441406 2.289062 13.402344 C 2.164062 13.382812 2.046875 13.265625 1.945312 13.101562 Z M 1.480469 8.21875 C 1.316406 9.210938 1.136719 10.148438 1.074219 10.96875 C 1.0625 11.0625 1.0625 11.160156 1.058594 11.25 L 1.058594 11.402344 C 1.074219 12.292969 1.371094 13 1.945312 13.445312 L 1.945312 13.101562 C 1.589844 12.53125 1.382812 11.378906 1.566406 11.578125 C 1.703125 11.730469 1.832031 11.894531 1.945312 12.066406 L 1.945312 8.988281 C 1.8125 8.71875 1.65625 8.464844 1.480469 8.21875 Z M 4.34375 14.113281 C 4.355469 14.148438 4.371094 14.183594 4.382812 14.21875 C 4.574219 14.695312 4.828125 15.152344 4.941406 15.59375 C 4.988281 15.777344 5.015625 15.964844 5.019531 16.15625 L 5.019531 16.277344 C 5.015625 16.527344 4.976562 16.765625 4.914062 16.996094 C 4.875 17.132812 5.050781 17.625 4.796875 17.664062 C 4.59375 17.699219 4.441406 17.675781 4.34375 17.601562 L 4.34375 16.804688 C 4.429688 16.96875 4.519531 17.058594 4.582031 17.007812 C 4.855469 16.777344 4.605469 16.035156 4.34375 15.625 Z M 4.0625 12.722656 C 4.066406 12.71875 4.070312 12.714844 4.074219 12.710938 C 4.0625 13.101562 4.160156 13.609375 4.34375 14.113281 L 4.34375 15.625 C 4.261719 15.492188 4.175781 15.394531 4.109375 15.363281 C 4.09375 15.355469 4.078125 15.351562 4.0625 15.351562 Z M 4.34375 17.601562 C 4.285156 17.558594 4.179688 17.519531 4.0625 17.496094 L 4.0625 17.285156 C 4.171875 17.296875 4.152344 17.214844 4.0625 17.089844 L 4.0625 16.023438 C 4.132812 16.300781 4.238281 16.609375 4.34375 16.804688 Z M 3.765625 16.269531 C 3.660156 15.976562 3.527344 15.6875 3.410156 15.402344 L 3.410156 13.570312 C 3.59375 13.292969 3.84375 13.011719 4.0625 12.722656 L 4.0625 15.351562 C 3.949219 15.355469 3.976562 15.667969 4.0625 16.023438 L 4.0625 17.089844 C 3.9375 16.917969 3.675781 16.65625 3.410156 16.429688 L 3.410156 15.699219 C 3.515625 15.878906 3.632812 16.066406 3.765625 16.269531 Z M 4.0625 17.496094 L 4.0625 17.285156 C 4.058594 17.28125 4.046875 17.28125 4.039062 17.28125 C 3.816406 17.238281 3.609375 17.175781 3.410156 17.035156 L 3.410156 17.34375 C 3.554688 17.417969 3.6875 17.457031 3.789062 17.460938 C 3.878906 17.464844 3.972656 17.476562 4.0625 17.496094 Z M 3.410156 15.402344 C 3.261719 15.046875 3.132812 14.703125 3.117188 14.375 C 3.101562 14.109375 3.222656 13.84375 3.410156 13.570312 Z M 3.410156 17.34375 L 3.410156 17.035156 C 3.15625 16.867188 2.914062 16.578125 2.675781 16.066406 C 2.542969 15.777344 2.976562 16.0625 3.410156 16.429688 L 3.410156 15.699219 C 3.179688 15.324219 3.007812 15 2.871094 14.703125 C 2.519531 13.914062 1.707031 13.449219 1.113281 13.039062 C 1.371094 14.074219 1.683594 15.03125 1.996094 15.84375 C 2.269531 16.554688 2.925781 17.109375 3.410156 17.34375 Z M 7.007812 19.476562 C 6.902344 19.394531 6.792969 19.3125 6.679688 19.230469 L 6.679688 18.957031 C 6.871094 19.160156 7.054688 19.320312 7.125 19.332031 C 7.4375 19.386719 7.0625 18.75 6.679688 18.339844 L 6.679688 17.546875 C 6.773438 17.640625 6.867188 17.730469 6.957031 17.820312 C 7.40625 18.289062 7.375 18.855469 7.542969 19.363281 C 7.582031 19.492188 7.652344 19.578125 7.65625 19.667969 L 7.65625 19.695312 C 7.652344 19.730469 7.640625 19.769531 7.609375 19.808594 C 7.460938 20.003906 7.296875 19.945312 7.101562 19.980469 C 6.921875 20.007812 6.84375 20.074219 6.695312 20.109375 C 6.691406 20.113281 6.6875 20.113281 6.679688 20.113281 L 6.679688 19.839844 C 6.722656 19.832031 6.753906 19.816406 6.773438 19.796875 C 6.839844 19.71875 6.792969 19.636719 6.679688 19.554688 L 6.679688 19.285156 C 6.792969 19.34375 6.902344 19.410156 7.007812 19.476562 Z M 6.679688 19.230469 C 6.257812 18.917969 5.863281 18.644531 5.492188 18.234375 C 4.9375 17.609375 5.078125 16.632812 5.207031 15.792969 C 5.390625 16.09375 5.550781 16.394531 5.765625 16.628906 C 6.082031 16.964844 6.390625 17.261719 6.679688 17.546875 L 6.679688 18.339844 C 6.457031 18.097656 6.234375 17.933594 6.144531 18.039062 C 6.035156 18.167969 6.367188 18.621094 6.679688 18.957031 Z M 6.679688 20.113281 L 6.679688 19.839844 C 6.40625 19.890625 5.644531 19.671875 5.019531 19.164062 C 4.667969 18.875 6.230469 19.210938 6.679688 19.554688 L 6.679688 19.285156 C 6.289062 19.066406 6.007812 18.957031 5.234375 18.140625 C 5.050781 17.949219 4.695312 17.746094 4.273438 17.707031 C 3.753906 17.652344 3.222656 17.488281 2.714844 17.3125 C 3.191406 17.941406 3.710938 18.542969 4.261719 19.117188 C 4.789062 19.671875 5.382812 19.941406 5.890625 20.109375 C 6.132812 20.1875 6.433594 20.171875 6.679688 20.113281 Z M 8.976562 20.375 C 9.636719 20.597656 10.121094 20.648438 10.46875 20.539062 C 10.328125 20.074219 10.117188 19.660156 9.785156 19.363281 C 9.53125 19.140625 9.28125 19.015625 8.976562 18.910156 L 8.976562 19.574219 C 9.6875 19.621094 10.355469 20.277344 10.261719 20.441406 C 10.175781 20.597656 9.386719 20.164062 8.976562 19.859375 Z M 8.976562 21.660156 L 8.976562 21.25 C 9.421875 21.292969 9.886719 21.210938 10.070312 21 C 10.222656 20.828125 9.5625 20.777344 8.976562 20.804688 L 8.976562 20.429688 C 9.4375 20.585938 9.9375 20.6875 10.472656 20.753906 C 10.15625 21.375 9.703125 21.667969 9.117188 21.667969 C 9.070312 21.667969 9.023438 21.664062 8.976562 21.660156 Z M 7.492188 18.0625 C 7.429688 18.679688 7.609375 19.335938 8.269531 20.097656 C 8.523438 20.207031 8.757812 20.300781 8.976562 20.375 L 8.976562 19.859375 C 8.777344 19.710938 8.671875 19.59375 8.773438 19.582031 C 8.839844 19.574219 8.90625 19.574219 8.976562 19.574219 L 8.976562 18.910156 C 8.820312 18.859375 8.652344 18.816406 8.460938 18.761719 C 8.015625 18.640625 7.664062 18.257812 7.492188 18.0625 Z M 8.976562 20.429688 L 8.976562 20.800781 C 8.484375 20.820312 8.042969 20.890625 8.167969 20.988281 C 8.355469 21.132812 8.660156 21.222656 8.976562 21.25 L 8.976562 21.660156 C 8.140625 21.605469 7.097656 21.0625 5.847656 20.398438 C 6.445312 20.367188 6.941406 20.324219 7.394531 20.132812 C 7.6875 20.003906 8.03125 20.054688 8.238281 20.125 C 8.476562 20.246094 8.722656 20.347656 8.976562 20.429688 Z M 14.199219 19.136719 L 11.03125 16.257812 L 9.859375 14.449219 L 9.027344 15.222656 L 9.027344 16.328125 L 10.394531 17.054688 L 13.183594 19.136719 Z M 9.027344 15.035156 L 9.027344 14.597656 L 9.609375 14.058594 L 9.785156 14.335938 Z M 9.027344 15.222656 L 8.269531 15.925781 L 9.027344 16.328125 Z M 9.027344 14.597656 L 9.027344 15.035156 L 8.144531 15.855469 L 7.839844 15.695312 Z M 18.875 2.878906 C 20.003906 2.878906 20.921875 3.761719 20.921875 4.839844 C 20.921875 5.921875 20.003906 6.804688 18.875 6.804688 C 17.976562 6.804688 17.207031 6.242188 16.933594 5.464844 L 14.320312 5.464844 L 14.320312 4.636719 C 14.515625 4.660156 14.710938 4.546875 14.710938 4.25 L 14.710938 1.851562 C 14.710938 1.621094 14.515625 1.496094 14.320312 1.492188 L 14.320312 1.117188 C 14.746094 1.105469 15.164062 1.347656 15.203125 1.851562 L 15.203125 4.25 C 15.203125 4.4375 14.964844 4.875 14.714844 4.875 L 16.828125 4.875 L 16.828125 4.839844 C 16.828125 3.761719 17.746094 2.878906 18.875 2.878906 Z M 14.320312 5.464844 L 10.90625 5.464844 L 10.90625 4.664062 C 11.066406 4.664062 11.257812 4.570312 11.257812 4.4375 L 11.257812 3.550781 C 11.148438 3.546875 11.027344 3.554688 10.90625 3.554688 L 10.90625 3.117188 C 11.050781 3.117188 11.257812 3.113281 11.257812 2.976562 L 11.257812 1.679688 C 11.1875 1.550781 11.046875 1.5 10.90625 1.5 L 10.90625 1.035156 C 11.246094 1.042969 11.792969 1.292969 11.792969 1.640625 L 11.792969 4.136719 C 11.792969 4.644531 11.609375 4.832031 11.257812 4.875 L 12.386719 4.875 L 12.386719 1.851562 L 12.121094 1.851562 L 12.121094 1.664062 L 12.972656 1.035156 L 12.972656 4.875 L 13.921875 4.875 C 13.6875 4.875 13.457031 4.550781 13.417969 4.25 L 13.417969 1.851562 C 13.503906 1.375 13.914062 1.128906 14.320312 1.117188 L 14.320312 1.492188 C 14.125 1.484375 13.929688 1.601562 13.929688 1.851562 L 13.929688 4.222656 C 13.929688 4.460938 14.125 4.617188 14.320312 4.636719 Z M 10.90625 5.464844 L 7.066406 5.464844 C 6.792969 6.242188 6.027344 6.804688 5.125 6.804688 C 4 6.804688 3.078125 5.921875 3.078125 4.839844 C 3.078125 3.761719 4 2.878906 5.125 2.878906 C 6.253906 2.878906 7.171875 3.761719 7.171875 4.839844 L 7.171875 4.875 L 8.875 4.875 L 8.875 1.851562 L 8.609375 1.851562 L 8.609375 1.664062 L 9.460938 1.035156 L 9.460938 4.875 L 10.550781 4.875 C 10.40625 4.871094 10.304688 4.855469 10.203125 4.769531 C 10.121094 4.699219 10.070312 4.589844 10.042969 4.472656 C 9.992188 4.273438 10.003906 4.035156 10.015625 3.859375 L 10.550781 3.867188 C 10.515625 4.59375 10.621094 4.628906 10.859375 4.65625 C 10.871094 4.660156 10.886719 4.660156 10.90625 4.660156 Z M 10.90625 3.554688 L 10.90625 3.117188 L 10.898438 3.117188 C 10.738281 3.117188 10.550781 3.105469 10.550781 2.976562 L 10.550781 1.675781 C 10.550781 1.578125 10.722656 1.496094 10.90625 1.5 L 10.90625 1.035156 L 10.894531 1.035156 C 10.605469 1.035156 10.015625 1.285156 10.015625 1.523438 L 10.015625 3.027344 C 10.015625 3.546875 10.464844 3.5625 10.90625 3.554688 Z M 10.90625 3.554688 "/>
</g>
</svg>
